<svg height='100px' width='100px'  fill="#51a7f9" xmlns="http://www.w3.org/2000/svg" xmlns:xlink="http://www.w3.org/1999/xlink" version="1.1" x="0px" y="0px" viewBox="0 0 100 100" enable-background="new 0 0 100 100" xml:space="preserve"><g><path d="M48.452,33.38c0-2.257-1.829-3.898-4.088-3.898H31.597c-2.257,0-4.086,1.641-4.086,3.898l-2.314,15.729   c0,2.255,1.829,4.171,4.086,4.171h1.274l3.144,31.322c0,1.372,1.116,2.322,2.491,2.322h3.579c1.375,0,2.491-0.95,2.491-2.322   l3.145-31.322h1.274c2.259,0,4.088-1.916,4.088-4.171L48.452,33.38z"></path><circle cx="37.982" cy="19.895" r="6.851"></circle></g><g><path d="M74.747,36.355c0-2.132-1.729-3.683-3.86-3.683H58.828c-2.131,0-3.859,1.551-3.859,3.683L52.784,60.51   c0,2.131,1.728,3.939,3.859,3.939h1.203l2.969,20.282c0,1.296,1.055,2.193,2.354,2.193h3.379c1.299,0,2.353-0.897,2.353-2.193   l2.97-20.282h1.203c2.133,0,3.86-1.809,3.86-3.939L74.747,36.355z"></path><circle cx="64.858" cy="23.618" r="6.47"></circle></g><g><path d="M20.369,51.228c0-1.504-1.22-2.597-2.725-2.597H9.132c-1.505,0-2.724,1.093-2.724,2.597L4.866,61.714   c0,1.504,1.219,2.78,2.725,2.78h0.849l2.096,20.882c0,0.915,0.745,1.549,1.661,1.549h2.386c0.917,0,1.66-0.634,1.66-1.549   l2.096-20.882h0.85c1.506,0,2.725-1.276,2.725-2.78L20.369,51.228z"></path><circle cx="13.39" cy="42.238" r="4.567"></circle></g><g><path d="M91.94,57.179c0-1.255-1.017-2.167-2.271-2.167h-7.094c-1.254,0-2.27,0.912-2.27,2.167l-1.286,14.208   c0,1.253,1.017,2.318,2.27,2.318h0.709l1.747,11.93c0,0.762,0.618,1.29,1.383,1.29h1.987c0.765,0,1.385-0.528,1.385-1.29   l1.747-11.93h0.708c1.255,0,2.271-1.065,2.271-2.318L91.94,57.179z"></path><circle cx="86.123" cy="49.686" r="3.806"></circle></g></svg>