<svg height='100px' width='100px'  fill="#7fb7dc" xmlns="http://www.w3.org/2000/svg" data-name="Layer 1" viewBox="0 0 128 128" x="0px" y="0px"><title>Miscellaneous 83 expandlines</title><path d="M16,77a2,2,0,0,0-4,0v8H4V61A12.014,12.014,0,0,1,16,49H38a11.942,11.942,0,0,1,8.163,3.229c.392-.143.791-.272,1.194-.392a17.854,17.854,0,0,1-1.2-4.56A15.82,15.82,0,0,0,38,45H36.779a14,14,0,1,0-19.559,0H16A16.018,16.018,0,0,0,0,61V85a4,4,0,0,0,4,4H33V85H16Zm1-42A10,10,0,1,1,27,45,10.011,10.011,0,0,1,17,35Z"></path><path d="M53,95V87.311a2,2,0,0,0-4,0V95H41V71A12.014,12.014,0,0,1,53,59H75A12.014,12.014,0,0,1,87,71v4.051a17.9,17.9,0,0,1,4,.671V71A16.018,16.018,0,0,0,75,55H73.779a14,14,0,1,0-19.559,0H53A16.018,16.018,0,0,0,37,71V95a4,4,0,0,0,4,4H69.05a17.819,17.819,0,0,1-.932-4Zm1-50A10,10,0,1,1,64,55,10.011,10.011,0,0,1,54,45Z"></path><path d="M86,79a14,14,0,1,0,14,14A14.016,14.016,0,0,0,86,79Zm0,24A10,10,0,1,1,96,93,10.011,10.011,0,0,1,86,103Z"></path><path d="M90,91H88V89a2,2,0,0,0-4,0v2H82a2,2,0,0,0,0,4h2v2a2,2,0,0,0,4,0V95h2a2,2,0,0,0,0-4Z"></path><path d="M112,45h-1.221a14,14,0,1,0-19.559,0H90a15.82,15.82,0,0,0-8.16,2.277,17.854,17.854,0,0,1-1.2,4.56c.4.12.8.249,1.194.392A11.942,11.942,0,0,1,90,49h22a12.014,12.014,0,0,1,12,12l0,24h-8V76a2,2,0,0,0-4,0v9h-9.9a17.838,17.838,0,0,1,1.436,4H124a4,4,0,0,0,4-4V61A16.018,16.018,0,0,0,112,45Zm-11,0a10,10,0,1,1,10-10A10.011,10.011,0,0,1,101,45Z"></path></svg>