<svg height='100px' width='100px'  fill="#1a1a1a" xmlns="http://www.w3.org/2000/svg" xmlns:xlink="http://www.w3.org/1999/xlink" version="1.1" x="0px" y="0px" viewBox="0 0 100 100" style="enable-background:new 0 0 100 100;" xml:space="preserve"><path d="M41.93,88c0,3.86-3.14,7-7,7h-22c-3.86,0-7-3.14-7-7V12c0-3.86,3.14-7,7-7h22c3.86,0,7,3.14,7,7s-3.14,7-7,7h-15v62h15  C38.79,81,41.93,84.14,41.93,88z M92.02,45.05L77.88,30.91c-1.32-1.32-3.08-2.05-4.95-2.05s-3.63,0.73-4.95,2.05  c-1.32,1.32-2.05,3.08-2.05,4.95s0.73,3.63,2.05,4.95L70.17,43H32.93c-3.86,0-7,3.14-7,7c0,3.86,3.14,7,7,7h37.24l-2.19,2.19  c-1.32,1.32-2.05,3.08-2.05,4.95c0,1.87,0.73,3.63,2.05,4.95c1.32,1.32,3.08,2.05,4.95,2.05s3.63-0.73,4.95-2.05l14.14-14.14  C94.75,52.22,94.75,47.78,92.02,45.05z"></path></svg>