<svg height='100px' width='100px'  fill="#eeac4a" xmlns="http://www.w3.org/2000/svg" xmlns:xlink="http://www.w3.org/1999/xlink" version="1.1" x="0px" y="0px" viewBox="0 0 100 100" style="enable-background:new 0 0 100 100;" xml:space="preserve"><g><path d="M40.2,80.3c-4-0.1-7.2,3-7.3,6.9c-0.1,4,3,7.2,6.9,7.3c4,0.1,7.2-3,7.3-6.9C47.2,83.7,44.1,80.4,40.2,80.3z"></path><path d="M81.2,80c-4-0.1-7.2,3-7.3,6.9c-0.1,4,3,7.2,6.9,7.3c4,0.1,7.2-3,7.3-6.9C88.2,83.5,85.2,80.1,81.2,80z"></path><path d="M89.8,60L97,30.1c0.7-3.1-1.7-6.2-5.1-6.3L26.4,22c-0.4,0-0.8-0.3-0.9-0.7L22.2,9.7c-0.4-1.5-1.9-2.6-3.5-2.7L7,6.4   c-2.3,0-4.1,1.7-4.2,3.9c0,2.1,1.8,3.9,4,4l7.7,0.4c0.4,0,0.8,0.3,0.9,0.7l3.2,11.5c0,0.1,0,0.1,0,0.2l10.6,38.3   c0.1,0.2,0.1,0.4,0,0.6c-1.8,4.7-2.3,7.4-0.5,10.2c1.9,3,4.7,3.5,7.4,3.6c0.9,0,53.1-0.4,53.1-0.4c2.2,0,4-1.7,4-4   c0-2.1-1.9-3.9-4-3.9l-51.5,0.3c-0.4,0-0.6,0-0.9-0.1c-0.1,0-0.3-0.1-0.3-0.2c-0.6-0.6-0.4-1.6,0-2c0.1-0.1,0.2-0.2,0.4-0.3   L85.2,64C87.4,63.8,89.3,62.1,89.8,60z"></path></g></svg>